<?xml version="1.0" encoding="UTF-8"?>
<svg id="Layer_2" data-name="Layer 2" xmlns="http://www.w3.org/2000/svg" viewBox="0 0 399.99 337.53">
  <defs>
    <style>
      .cls-1 {
        fill: #fff;
      }

      .cls-2 {
        fill: #ffaf2e;
      }

      .cls-3 {
        fill: #dd6307;
      }
    </style>
  </defs>
  <g id="Layer_4" data-name="Layer 4">
    <g>
      <path class="cls-2" d="M101.27,51.89l5.62,25.54c-42.23,0-61.19,47.99-61.78,49.49,.26-1.77,.56-3.48,.88-5.14l-2.08,9.35c-10.52-15.96-14.47-39.39-14.47-39.83,12.26,35.63,16.34,30.59,16.6,30.22v-.02c10.89-55.19,51.66-53.27,51.66-53.27l-2.05-17.87c-17.91-7.96-30,8.81-30.61,9.67,13.27-24.47,35.21-17.33,35.21-17.33,16.34-7.15,4.6-24,4.6-24-13.12-17.75-35.2,14.51-35.74,15.31,1.19-2.85,2.4-5.47,3.6-7.89-.85-4.26-2.86-6.56-3.95-7.59-5.22-4.94-14.87-5.09-23.66,.17-3.93,2.58-8.63,6.21-13.28,11.24-7.43,8.04-11.56,16.25-13.86,21.95,.91-5.74,2.96-14.06,7.91-22.97,3.26-5.89,6.91-10.44,10.04-13.79,1.72-1.63,10.72-9.85,24.34-9.36,10.57,.37,17.74,5.77,20.06,7.67,19.08-25.83,36.28-6.48,36.28-6.48,14.3,35.74-15.32,44.93-15.32,44.93Z"/>
      <path class="cls-2" d="M35.9,51.89c-2.85,.7-16.05,4.27-21.96,16.34-1.51,3.09-2.23,6.1-2.55,8.68,.03,2.36,.34,5.58,1.53,9.19,1.91,5.77,5.13,9.66,7.15,11.74-1.82-.1-7.56-.64-12.77-5.11C1.66,87.9,.44,81.68,.16,79.98c-.44-3.81,.1-6.8,.84-9,3.71-11.09,17.62-18.42,34.91-19.08Z"/>
      <path class="cls-2" d="M115.06,153.51c-.77,27.32,8.17,47.75,11.74,52.85,3.58,5.11,12.77,1.79,12.77,1.79-5.11,14.3-16.34,18.64-16.34,18.64-14.81,2.81-15.58-10.73-15.58-10.73l-5.57-44.06c-5.03,20.31-11.89,42.74-19.96,55.55,0,0-8.93,7.66-16.08,6.13,0,0-5.88-2.81-4.34-5.62,1.53-2.8,33.19-66.63,37.02-107.49,1.81-13.39-.47-23.45-5.45-25.14-.99-.33-2.44-.45-4.51,.38-4.72,5.1-10.73,12.7-15.83,22.98-5.38,10.86-7.79,20.76-8.94,27.83,.43,2.38,.86,4.76,1.28,7.15-.05,.34-.55,3.7-3.32,5.1-2.78,1.41-6.75,.28-8.93-3.06-.67-3.31-1.23-7.88-.77-13.28,.57-6.77,2.51-12.12,4.08-15.57,5.28-11.15,18.14-34.36,38.04-36.37,.92-.1,1.86-.14,2.82-.14,1.11,.06,2.11,.28,3.02,.62,12.52,4.72,11.17,34.09,11.02,36.91-.71,4.79-1.59,9.73-2.6,14.8,45.15-21.46,51.36-74.29,51.36-74.29,54.9,10.72-44.93,85.02-44.93,85.02Z"/>
      <path class="cls-2" d="M398.59,171.78c-1.36,2.08-2.74,4.21-4.15,6.33-7.13,10.75-14.35,21.45-23.5,30.67-1.64,1.66-3.48,3.14-5.34,4.54-.63,.47-1.64,.43-2.48,.63-.03-.92-.39-1.99-.04-2.73,1.03-2.16,2.18-4.3,3.58-6.24,8.77-12.19,17.62-24.32,26.44-36.47,.3-.42,.51-.9,.82-1.46-.52-.38-.98-.74-1.62-1.21-3.53,4.55-6.92,9.06-10.45,13.46-6.24,7.77-12.51,15.52-18.88,23.17-1.37,1.65-3.22,2.92-4.96,4.24-.42,.31-1.52,.35-1.83,.04-.43-.43-.71-1.39-.54-1.98,.27-.97,.84-1.92,1.48-2.74,9.97-12.8,19.98-25.57,29.97-38.35,.18-.24,.32-.51,.73-1.16-.46-.43-.98-.91-1.71-1.59-2.76,3.55-5.24,6.86-7.84,10.06-7.02,8.59-14.05,17.18-21.18,25.68-1.28,1.53-2.93,2.89-4.67,3.84-.95,.51-2.86,.48-3.64-.16-1.29-1.06-.53-2.64,.44-3.81,7.13-8.6,14.28-17.18,21.41-25.78,3.51-4.23,6.98-8.5,10.58-12.88-.6-.51-1.08-.92-1.58-1.35-.27,.16-.49,.23-.63,.38-11.33,12.86-22.59,25.78-34.01,38.57-4.65,5.2-4.88,11.05-3.52,17.37,.17,.8-.01,2-.53,2.57-5,5.51-9.89,11.14-14.94,16.61,.03,.03,.06,.06,.09,.09-4.15,4.05-12.41,10.15-26.01,12.45,0,0-1.4,.48-3.76,1.24,1.3-3.84,2.55-7.81,3.76-11.93,0,0,13.62-28.96,12.94-50.75l-16-2.04s-2.05,45.44-22.81,42.12c0,0-15.32,.43,.68-45.87l-10.22,2.72s-7.23,14.65-9.06,29.8c-2.35,2.06-10.97,7.33-22.45-18.31,12.18-14.98,18.99-31.95,22.71-47.65,5.21-22.01,5.11-40.94,3.19-53.45-.94-6.65-5.51-11.86-11.24-13.02-5.21-1.07-9.44,1.61-10.46,2.29-36,39.58-20.94,106.98-20.94,106.98l8.43-10.72c-3.07-15.06,7.91-65.62,15.31-72.77,7.41-7.15,9.2,4.85,9.2,4.85-7.66,77.62-54.9,97.54-54.9,97.54,0,0-15.57-1.79-6.13-38.81l-9.7-1.28-3.32,9.19c-2.55-3.92-5.19-4.83-6.38-5.1-6.35-1.45-15.09,5.23-19.66,17.61-2.07,5.5-4.72,15.25-2.3,26.56,.59,2.75,1.4,5.22,2.3,7.4,3.87,3.65,7.38,4.03,8.68,4.09,7.23,.29,14.95-6.8,17.36-17.88-.39,5.7,2.03,10.94,6.32,13.79,2.01,1.34,4.65,2.16,8.13,2.04,13.86-5.69,25.02-13.12,34.01-21.56,.32,.74,15.88,37.02,32.39,23.61v-.12c.79,3.21,2.1,6.18,4.11,8.74,0,0,14.6,10.17,26.86-3.07-.12,.5-2.11,8.67-6.93,19.77-9.72,2.59-20.91,5.06-28.46,5.06-16,0-64.34,12.93-64,49.7,0,0-2.38,25.19,21.79,31.32,21.61,5.48,57.39-14.31,82.23-78.23,.61-.14,1.23-.27,1.85-.41,0,0,20.23-3.18,36.71-21.67,4.04-4.15,6.75-7.01,8.53-8.92,0,0,.08-.1,3.74-4.05,0,0,.16-.15,.24-.23,.2-.2,.3-.33,.71-.74q3.07-3.03,6.72-.97c5.61,3.19,11.85,2.64,17.23-2.15,13.91-12.39,24.54-27.18,31.8-44.33,.4-.95,1.69-2.36-.7-3.18Zm-225.32,30.24c-5.01,7.99-10.09,12.61-13.02,11.49-.72-.28-1.91-1.13-2.55-4.34-1.21-10.17,2.25-19.06,8.75-22.34,1.4-.71,3.64-1.51,6.82-1.4-.25,1.02,0,16.59,0,16.59Zm46.47,109.79s-16-4.09-5.11-19.41c9.59-13.47,17.85-19.83,59.79-29.98-10.16,18.65-27.32,40.33-54.68,49.39Z"/>
      <path class="cls-3" d="M88.76,95.81s-22.21,18.55-27.32,48.17-9.19-1.45-9.19-1.45c0,0-2.05,19.66,9.7,16.34,0,0,3.74-2.12,3.32-5.1s-1.62-31.24,23.49-57.96Z"/>
      <path class="cls-3" d="M242.62,102.13s-22.55,6.78-21.53,79.97l5.45-4.43s-2.9-50.67,16.08-75.55Z"/>
      <path class="cls-3" d="M256.16,218.53s-11,14.58-32.39-16.88c0,0,18.09,38.17,32.39,23.61v-6.73Z"/>
      <path class="cls-3" d="M274.42,262.42s-36.64,67.43-60.47,58.24,11.06-39.71,11.06-39.71c0,0-26.38,22.69-5.27,30.86,0,0,28.68-3.12,54.68-49.39Z"/>
      <path class="cls-3" d="M399.77,172.5s-5.68,23.19-26.81,42.61c0,0-10.58,10.57-17.73,8.7l-7.76-3.73s11.67,3.56,21.03-7.33,31.27-40.25,31.27-40.25Z"/>
      <path class="cls-1" d="M165.36,80.74s-1.29,21.45-12.52,31.15c0,0,33.21-34.98,12.52-31.15Z"/>
      <path class="cls-1" d="M165.91,177.51s-7.71,3.06-13.07,18.38c0,0-.67-19.15,13.07-18.38Z"/>
      <path class="cls-1" d="M239.96,90.53c.55,1.79-11.18,14.73-18.9,37,0,0,14.62-50.95,18.9-37Z"/>
      <path class="cls-1" d="M194.8,294.01c.94-2.69,2.62-5.29,5.22-6.46,.67-.3,1.45-.5,2.15-.25,1.45,.53,1.58,2.54,1.26,4.05-1.95,9.04-8.47,15.8-5.68,25.64-3.48-6.89-5.58-15.46-2.94-22.98Z"/>
      <path class="cls-1" d="M308.93,188.91c.11-1.07-6.47,0-6.47,0,0,0-10.55,74.05-32,98.64,0,0,33.02-47.24,38.47-98.64Z"/>
    </g>
  </g>
</svg>